<?xml version="1.0" encoding="UTF-8" standalone="no"?>
<!DOCTYPE svg PUBLIC "-//W3C//DTD SVG 1.1//EN"
 "http://www.w3.org/Graphics/SVG/1.1/DTD/svg11.dtd">
<!-- Generated by graphviz version 2.40.1 (20161225.0304)
 -->
<!-- Title: G Pages: 1 -->
<svg width="1289pt" height="430pt"
 viewBox="0.00 0.00 1288.50 430.40" xmlns="http://www.w3.org/2000/svg" xmlns:xlink="http://www.w3.org/1999/xlink">
<g id="graph0" class="graph" transform="scale(1 1) rotate(0) translate(4 426.4)">
<title>G</title>
<polygon fill="#ffffff" stroke="transparent" points="-4,4 -4,-426.4 1284.5,-426.4 1284.5,4 -4,4"/>
<!-- initial -->
<g id="node1" class="node">
<title>initial</title>
<ellipse fill="#000000" stroke="#000000" cx="891.5" cy="-415.2" rx="7.2" ry="7.2"/>
</g>
<!-- listening -->
<g id="node2" class="node">
<title>listening</title>
<text text-anchor="start" x="863.5" y="-343.8" font-family="Helvetica,sans-Serif" font-weight="bold" font-size="14.00" fill="#000000">listening</text>
<text text-anchor="start" x="816" y="-323.8" font-family="Helvetica,sans-Serif" font-size="14.00" fill="#000000">entry / update_led(False)</text>
<text text-anchor="start" x="826" y="-308.8" font-family="Helvetica,sans-Serif" font-size="14.00" fill="#000000">entry / check_queue()</text>
<text text-anchor="start" x="836" y="-293.8" font-family="Helvetica,sans-Serif" font-size="14.00" fill="#000000">register / register()</text>
<text text-anchor="start" x="796" y="-278.8" font-family="Helvetica,sans-Serif" font-size="14.00" fill="#000000">update_nurse / update_nurse(*)</text>
<text text-anchor="start" x="738.5" y="-263.8" font-family="Helvetica,sans-Serif" font-size="14.00" fill="#000000">save_message / save_message(*); check_queue()</text>
<polygon fill="#000000" stroke="#000000" points="735.5,-337 735.5,-337 1047.5,-337 1047.5,-337 735.5,-337"/>
<path fill="none" stroke="#000000" d="M747.5,-257C747.5,-257 1035.5,-257 1035.5,-257 1041.5,-257 1047.5,-263 1047.5,-269 1047.5,-269 1047.5,-345 1047.5,-345 1047.5,-351 1041.5,-357 1035.5,-357 1035.5,-357 747.5,-357 747.5,-357 741.5,-357 735.5,-351 735.5,-345 735.5,-345 735.5,-269 735.5,-269 735.5,-263 741.5,-257 747.5,-257"/>
</g>
<!-- initial&#45;&gt;listening -->
<g id="edge1" class="edge">
<title>initial&#45;&gt;listening</title>
<path fill="none" stroke="#000000" d="M891.5,-407.763C891.5,-398.9854 891.5,-383.5198 891.5,-367.3009"/>
<polygon fill="#000000" stroke="#000000" points="895.0001,-367.158 891.5,-357.158 888.0001,-367.1581 895.0001,-367.158"/>
<text text-anchor="middle" x="923.5" y="-378.8" font-family="Helvetica,sans-Serif" font-size="14.00" fill="#000000"> &#160;/on_init();</text>
</g>
<!-- replay -->
<g id="node3" class="node">
<title>replay</title>
<text text-anchor="start" x="88" y="-147.8" font-family="Helvetica,sans-Serif" font-weight="bold" font-size="14.00" fill="#000000">replay</text>
<text text-anchor="start" x="3.5" y="-127.8" font-family="Helvetica,sans-Serif" font-size="14.00" fill="#000000">save_message / save_message(*)</text>
<polygon fill="#000000" stroke="#000000" points=".5,-141 .5,-141 215.5,-141 215.5,-141 .5,-141"/>
<path fill="none" stroke="#000000" d="M12,-121C12,-121 203,-121 203,-121 209,-121 215,-127 215,-133 215,-133 215,-149 215,-149 215,-155 209,-161 203,-161 203,-161 12,-161 12,-161 6,-161 0,-155 0,-149 0,-149 0,-133 0,-133 0,-127 6,-121 12,-121"/>
</g>
<!-- listening&#45;&gt;replay -->
<g id="edge6" class="edge">
<title>listening&#45;&gt;replay</title>
<path fill="none" stroke="#000000" d="M735.4174,-291.327C641.9157,-280.3002 521.083,-263.1626 415.5,-239 329.1798,-219.2457 232.2434,-186.6066 170.5803,-164.4745"/>
<polygon fill="#000000" stroke="#000000" points="171.588,-161.1173 160.9937,-161.0162 169.2126,-167.7019 171.588,-161.1173"/>
<text text-anchor="middle" x="436" y="-212.8" font-family="Helvetica,sans-Serif" font-size="14.00" fill="#000000"> replay</text>
</g>
<!-- playing -->
<g id="node5" class="node">
<title>playing</title>
<text text-anchor="start" x="373.5" y="-162.8" font-family="Helvetica,sans-Serif" font-weight="bold" font-size="14.00" fill="#000000">playing</text>
<text text-anchor="start" x="314" y="-142.8" font-family="Helvetica,sans-Serif" font-size="14.00" fill="#000000">entry / stop_timer(time_out)</text>
<text text-anchor="start" x="257.5" y="-127.8" font-family="Helvetica,sans-Serif" font-size="14.00" fill="#000000">message_played / start_timer(&#39;time_out&#39;,3000)</text>
<text text-anchor="start" x="236.5" y="-112.8" font-family="Helvetica,sans-Serif" font-size="14.00" fill="#000000">save_message / save_message(*); save_message(*)</text>
<polygon fill="#000000" stroke="#000000" points="233.5,-156 233.5,-156 561.5,-156 561.5,-156 233.5,-156"/>
<path fill="none" stroke="#000000" d="M245.5,-106C245.5,-106 549.5,-106 549.5,-106 555.5,-106 561.5,-112 561.5,-118 561.5,-118 561.5,-164 561.5,-164 561.5,-170 555.5,-176 549.5,-176 549.5,-176 245.5,-176 245.5,-176 239.5,-176 233.5,-170 233.5,-164 233.5,-164 233.5,-118 233.5,-118 233.5,-112 239.5,-106 245.5,-106"/>
</g>
<!-- listening&#45;&gt;playing -->
<g id="edge2" class="edge">
<title>listening&#45;&gt;playing</title>
<path fill="none" stroke="#000000" d="M735.1987,-292.1274C671.1447,-282.2668 597.4298,-265.9467 534.5,-239 501.9951,-225.0813 469.6328,-202.4483 444.5298,-182.4379"/>
<polygon fill="#000000" stroke="#000000" points="446.6165,-179.624 436.6435,-176.0476 442.2095,-185.0626 446.6165,-179.624"/>
<text text-anchor="middle" x="580.5" y="-212.8" font-family="Helvetica,sans-Serif" font-size="14.00" fill="#000000"> play_message</text>
</g>
<!-- recording -->
<g id="node6" class="node">
<title>recording</title>
<text text-anchor="start" x="1020.5" y="-147.8" font-family="Helvetica,sans-Serif" font-weight="bold" font-size="14.00" fill="#000000">recording</text>
<text text-anchor="start" x="947.5" y="-127.8" font-family="Helvetica,sans-Serif" font-size="14.00" fill="#000000">save_message / save_message(*)</text>
<polygon fill="#000000" stroke="#000000" points="944.5,-141 944.5,-141 1159.5,-141 1159.5,-141 944.5,-141"/>
<path fill="none" stroke="#000000" d="M956,-121C956,-121 1147,-121 1147,-121 1153,-121 1159,-127 1159,-133 1159,-133 1159,-149 1159,-149 1159,-155 1153,-161 1147,-161 1147,-161 956,-161 956,-161 950,-161 944,-155 944,-149 944,-149 944,-133 944,-133 944,-127 950,-121 956,-121"/>
</g>
<!-- listening&#45;&gt;recording -->
<g id="edge9" class="edge">
<title>listening&#45;&gt;recording</title>
<path fill="none" stroke="#000000" d="M903.5765,-256.8548C910.8015,-235.4 921.9038,-211.35 938.5,-194 949.7255,-182.2647 964.063,-172.8582 978.7284,-165.4226"/>
<polygon fill="#000000" stroke="#000000" points="980.3677,-168.5183 987.8772,-161.0445 977.346,-162.2041 980.3677,-168.5183"/>
<text text-anchor="middle" x="953.5" y="-212.8" font-family="Helvetica,sans-Serif" font-size="14.00" fill="#000000"> help</text>
</g>
<!-- playing_replay -->
<g id="node4" class="node">
<title>playing_replay</title>
<text text-anchor="start" x="604.5" y="-41.3" font-family="Helvetica,sans-Serif" font-weight="bold" font-size="14.00" fill="#000000">playing_replay</text>
<text text-anchor="start" x="547.5" y="-21.3" font-family="Helvetica,sans-Serif" font-size="14.00" fill="#000000">save_message / save_message(*)</text>
<text text-anchor="start" x="563" y="-6.3" font-family="Helvetica,sans-Serif" font-size="14.00" fill="#000000">replay_save_message / defer</text>
<polygon fill="#000000" stroke="#000000" points="544.5,-34.5 544.5,-34.5 759.5,-34.5 759.5,-34.5 544.5,-34.5"/>
<path fill="none" stroke="#000000" d="M556,0C556,0 747,0 747,0 753,0 759,-6 759,-12 759,-12 759,-43 759,-43 759,-49 753,-55 747,-55 747,-55 556,-55 556,-55 550,-55 544,-49 544,-43 544,-43 544,-12 544,-12 544,-6 550,0 556,0"/>
</g>
<!-- replay&#45;&gt;playing_replay -->
<g id="edge7" class="edge">
<title>replay&#45;&gt;playing_replay</title>
<path fill="none" stroke="#000000" d="M170.0036,-120.9327C187.531,-115.68 206.6698,-110.2924 224.5,-106 328.1199,-81.0549 447.5443,-59.7171 533.7007,-45.6121"/>
<polygon fill="#000000" stroke="#000000" points="534.4679,-49.0333 543.775,-43.9709 533.3423,-42.1244 534.4679,-49.0333"/>
<text text-anchor="middle" x="446.5" y="-76.8" font-family="Helvetica,sans-Serif" font-size="14.00" fill="#000000"> replay_save_message</text>
</g>
<!-- playing_replay&#45;&gt;listening -->
<g id="edge8" class="edge">
<title>playing_replay&#45;&gt;listening</title>
<path fill="none" stroke="#000000" d="M759.2072,-36.4168C902.8397,-49.4161 1142.183,-75.3854 1168.5,-106 1209.087,-153.2148 1175.0813,-202.6947 1124.5,-239 1104.327,-253.4794 1081.0954,-264.8959 1057.2822,-273.8924"/>
<polygon fill="#000000" stroke="#000000" points="1055.9767,-270.6428 1047.7741,-277.3487 1058.3682,-277.2217 1055.9767,-270.6428"/>
<text text-anchor="middle" x="1233" y="-137.3" font-family="Helvetica,sans-Serif" font-size="14.00" fill="#000000"> replay_finished</text>
</g>
<!-- playing&#45;&gt;listening -->
<g id="edge5" class="edge">
<title>playing&#45;&gt;listening</title>
<path fill="none" stroke="#000000" d="M561.714,-175.3166C583.6615,-180.9761 605.7437,-187.2308 626.5,-194 676.6574,-210.3578 730.4723,-232.4204 776.4149,-252.7094"/>
<polygon fill="#000000" stroke="#000000" points="775.2346,-256.0148 785.7945,-256.875 778.0759,-249.6173 775.2346,-256.0148"/>
<text text-anchor="middle" x="793.5" y="-220.3" font-family="Helvetica,sans-Serif" font-size="14.00" fill="#000000"> queue_empty /</text>
<text text-anchor="middle" x="793.5" y="-205.3" font-family="Helvetica,sans-Serif" font-size="14.00" fill="#000000">iterate_queue();</text>
</g>
<!-- playing&#45;&gt;playing -->
<g id="edge3" class="edge">
<title>playing&#45;&gt;playing</title>
<path fill="none" stroke="#000000" d="M561.5725,-145.0607C572.7234,-144.126 579.5,-142.7725 579.5,-141 579.5,-139.8645 576.7189,-138.9009 571.7882,-138.1093"/>
<polygon fill="#000000" stroke="#000000" points="571.9058,-134.5999 561.5725,-136.9393 571.1093,-141.5545 571.9058,-134.5999"/>
<text text-anchor="middle" x="644.5" y="-144.8" font-family="Helvetica,sans-Serif" font-size="14.00" fill="#000000"> replay /</text>
<text text-anchor="middle" x="644.5" y="-129.8" font-family="Helvetica,sans-Serif" font-size="14.00" fill="#000000">stop_timer(time_out);</text>
</g>
<!-- playing&#45;&gt;playing -->
<g id="edge4" class="edge">
<title>playing&#45;&gt;playing</title>
<path fill="none" stroke="#000000" d="M561.6306,-152.1779C637.9504,-152.8265 709.5,-149.1006 709.5,-141 709.5,-133.2633 644.2343,-129.517 571.8809,-129.7612"/>
<polygon fill="#000000" stroke="#000000" points="571.6096,-126.2627 561.6306,-129.8221 571.6512,-133.2625 571.6096,-126.2627"/>
<text text-anchor="middle" x="808.5" y="-144.8" font-family="Helvetica,sans-Serif" font-size="14.00" fill="#000000"> time_out /</text>
<text text-anchor="middle" x="808.5" y="-129.8" font-family="Helvetica,sans-Serif" font-size="14.00" fill="#000000">load_next_message_in_queue();</text>
</g>
<!-- recording&#45;&gt;listening -->
<g id="edge10" class="edge">
<title>recording&#45;&gt;listening</title>
<path fill="none" stroke="#000000" d="M1035.7694,-161.2564C1019.6439,-181.6052 993.4627,-213.5153 968.5,-239 965.0914,-242.4798 961.5337,-245.9912 957.8975,-249.4877"/>
<polygon fill="#000000" stroke="#000000" points="955.2068,-247.215 950.346,-256.629 960.0165,-252.301 955.2068,-247.215"/>
<text text-anchor="middle" x="1064.5" y="-227.8" font-family="Helvetica,sans-Serif" font-size="14.00" fill="#000000"> done /</text>
<text text-anchor="middle" x="1064.5" y="-212.8" font-family="Helvetica,sans-Serif" font-size="14.00" fill="#000000">send_data();</text>
<text text-anchor="middle" x="1064.5" y="-197.8" font-family="Helvetica,sans-Serif" font-size="14.00" fill="#000000">tts(Message sent);</text>
</g>
</g>
</svg>
