<?xml version="1.0" encoding="UTF-8" standalone="no"?>
<!DOCTYPE svg PUBLIC "-//W3C//DTD SVG 1.1//EN"
 "http://www.w3.org/Graphics/SVG/1.1/DTD/svg11.dtd">
<!-- Generated by graphviz version 2.40.1 (20161225.0304)
 -->
<!-- Title: G Pages: 1 -->
<svg width="1288pt" height="486pt"
 viewBox="0.00 0.00 1287.50 486.00" xmlns="http://www.w3.org/2000/svg" xmlns:xlink="http://www.w3.org/1999/xlink">
<g id="graph0" class="graph" transform="scale(1 1) rotate(0) translate(4 482)">
<title>G</title>
<polygon fill="#ffffff" stroke="transparent" points="-4,4 -4,-482 1283.5,-482 1283.5,4 -4,4"/>
<!-- initial -->
<g id="node1" class="node">
<title>initial</title>
<ellipse fill="#000000" stroke="#000000" cx="708.5" cy="-435.5" rx="7.2" ry="7.2"/>
</g>
<!-- listening -->
<g id="node2" class="node">
<title>listening</title>
<text text-anchor="start" x="750" y="-328.3" font-family="Helvetica,sans-Serif" font-weight="bold" font-size="14.00" fill="#000000">listening</text>
<text text-anchor="start" x="702.5" y="-308.3" font-family="Helvetica,sans-Serif" font-size="14.00" fill="#000000">entry / update_led(False)</text>
<text text-anchor="start" x="722.5" y="-293.3" font-family="Helvetica,sans-Serif" font-size="14.00" fill="#000000">register / register()</text>
<text text-anchor="start" x="682.5" y="-278.3" font-family="Helvetica,sans-Serif" font-size="14.00" fill="#000000">update_nurse / update_nurse(*)</text>
<text text-anchor="start" x="673.5" y="-263.3" font-family="Helvetica,sans-Serif" font-size="14.00" fill="#000000">save_message / save_message(*)</text>
<polygon fill="#000000" stroke="#000000" points="670.5,-321.5 670.5,-321.5 885.5,-321.5 885.5,-321.5 670.5,-321.5"/>
<path fill="none" stroke="#000000" d="M682,-257C682,-257 873,-257 873,-257 879,-257 885,-263 885,-269 885,-269 885,-330 885,-330 885,-336 879,-342 873,-342 873,-342 682,-342 682,-342 676,-342 670,-336 670,-330 670,-330 670,-269 670,-269 670,-263 676,-257 682,-257"/>
</g>
<!-- initial&#45;&gt;listening -->
<g id="edge1" class="edge">
<title>initial&#45;&gt;listening</title>
<path fill="none" stroke="#000000" d="M710.7798,-428.4432C713.6261,-419.8971 718.817,-405.1384 724.5,-393 731.055,-378.9991 738.9184,-364.2673 746.5568,-350.7441"/>
<polygon fill="#000000" stroke="#000000" points="749.6016,-352.4701 751.5277,-342.0519 743.5251,-348.9951 749.6016,-352.4701"/>
<text text-anchor="middle" x="773.5" y="-363.8" font-family="Helvetica,sans-Serif" font-size="14.00" fill="#000000"> &#160;/on_init();</text>
</g>
<!-- replay -->
<g id="node3" class="node">
<title>replay</title>
<text text-anchor="start" x="88" y="-147.8" font-family="Helvetica,sans-Serif" font-weight="bold" font-size="14.00" fill="#000000">replay</text>
<text text-anchor="start" x="3.5" y="-127.8" font-family="Helvetica,sans-Serif" font-size="14.00" fill="#000000">save_message / save_message(*)</text>
<polygon fill="#000000" stroke="#000000" points=".5,-141 .5,-141 215.5,-141 215.5,-141 .5,-141"/>
<path fill="none" stroke="#000000" d="M12,-121C12,-121 203,-121 203,-121 209,-121 215,-127 215,-133 215,-133 215,-149 215,-149 215,-155 209,-161 203,-161 203,-161 12,-161 12,-161 6,-161 0,-155 0,-149 0,-149 0,-133 0,-133 0,-127 6,-121 12,-121"/>
</g>
<!-- listening&#45;&gt;replay -->
<g id="edge6" class="edge">
<title>listening&#45;&gt;replay</title>
<path fill="none" stroke="#000000" d="M669.7763,-278.343C557.8332,-255.681 377.8945,-217.3529 224.5,-176 210.6948,-172.2783 196.0439,-168.0886 181.9507,-163.9358"/>
<polygon fill="#000000" stroke="#000000" points="182.8828,-160.5616 172.3003,-161.0728 180.8918,-167.2725 182.8828,-160.5616"/>
<text text-anchor="middle" x="502" y="-212.8" font-family="Helvetica,sans-Serif" font-size="14.00" fill="#000000"> replay</text>
</g>
<!-- playing -->
<g id="node5" class="node">
<title>playing</title>
<text text-anchor="start" x="373.5" y="-162.8" font-family="Helvetica,sans-Serif" font-weight="bold" font-size="14.00" fill="#000000">playing</text>
<text text-anchor="start" x="314" y="-142.8" font-family="Helvetica,sans-Serif" font-size="14.00" fill="#000000">entry / stop_timer(time_out)</text>
<text text-anchor="start" x="257.5" y="-127.8" font-family="Helvetica,sans-Serif" font-size="14.00" fill="#000000">message_played / start_timer(&#39;time_out&#39;,3000)</text>
<text text-anchor="start" x="236.5" y="-112.8" font-family="Helvetica,sans-Serif" font-size="14.00" fill="#000000">save_message / save_message(*); save_message(*)</text>
<polygon fill="#000000" stroke="#000000" points="233.5,-156 233.5,-156 561.5,-156 561.5,-156 233.5,-156"/>
<path fill="none" stroke="#000000" d="M245.5,-106C245.5,-106 549.5,-106 549.5,-106 555.5,-106 561.5,-112 561.5,-118 561.5,-118 561.5,-164 561.5,-164 561.5,-170 555.5,-176 549.5,-176 549.5,-176 245.5,-176 245.5,-176 239.5,-176 233.5,-170 233.5,-164 233.5,-164 233.5,-118 233.5,-118 233.5,-112 239.5,-106 245.5,-106"/>
</g>
<!-- listening&#45;&gt;playing -->
<g id="edge2" class="edge">
<title>listening&#45;&gt;playing</title>
<path fill="none" stroke="#000000" d="M675.4171,-256.9207C618.0607,-232.997 546.992,-203.3539 491.0801,-180.0328"/>
<polygon fill="#000000" stroke="#000000" points="492.1109,-176.6705 481.5341,-176.0511 489.4161,-183.131 492.1109,-176.6705"/>
<text text-anchor="middle" x="637" y="-212.8" font-family="Helvetica,sans-Serif" font-size="14.00" fill="#000000"> play</text>
</g>
<!-- recording -->
<g id="node6" class="node">
<title>recording</title>
<text text-anchor="start" x="1020.5" y="-147.8" font-family="Helvetica,sans-Serif" font-weight="bold" font-size="14.00" fill="#000000">recording</text>
<text text-anchor="start" x="947.5" y="-127.8" font-family="Helvetica,sans-Serif" font-size="14.00" fill="#000000">save_message / save_message(*)</text>
<polygon fill="#000000" stroke="#000000" points="944.5,-141 944.5,-141 1159.5,-141 1159.5,-141 944.5,-141"/>
<path fill="none" stroke="#000000" d="M956,-121C956,-121 1147,-121 1147,-121 1153,-121 1159,-127 1159,-133 1159,-133 1159,-149 1159,-149 1159,-155 1153,-161 1147,-161 1147,-161 956,-161 956,-161 950,-161 944,-155 944,-149 944,-149 944,-133 944,-133 944,-127 950,-121 956,-121"/>
</g>
<!-- listening&#45;&gt;recording -->
<g id="edge9" class="edge">
<title>listening&#45;&gt;recording</title>
<path fill="none" stroke="#000000" d="M815.626,-256.8268C836.5613,-235.5149 864.0144,-210.7686 892.5,-194 906.7596,-185.6058 939.7323,-174.2091 971.976,-164.1347"/>
<polygon fill="#000000" stroke="#000000" points="973.4174,-167.3526 981.9377,-161.0554 971.3501,-160.6648 973.4174,-167.3526"/>
<text text-anchor="middle" x="907.5" y="-212.8" font-family="Helvetica,sans-Serif" font-size="14.00" fill="#000000"> help</text>
</g>
<!-- playing_replay -->
<g id="node4" class="node">
<title>playing_replay</title>
<text text-anchor="start" x="604.5" y="-41.3" font-family="Helvetica,sans-Serif" font-weight="bold" font-size="14.00" fill="#000000">playing_replay</text>
<text text-anchor="start" x="547.5" y="-21.3" font-family="Helvetica,sans-Serif" font-size="14.00" fill="#000000">save_message / save_message(*)</text>
<text text-anchor="start" x="563" y="-6.3" font-family="Helvetica,sans-Serif" font-size="14.00" fill="#000000">replay_save_message / defer</text>
<polygon fill="#000000" stroke="#000000" points="544.5,-34.5 544.5,-34.5 759.5,-34.5 759.5,-34.5 544.5,-34.5"/>
<path fill="none" stroke="#000000" d="M556,0C556,0 747,0 747,0 753,0 759,-6 759,-12 759,-12 759,-43 759,-43 759,-49 753,-55 747,-55 747,-55 556,-55 556,-55 550,-55 544,-49 544,-43 544,-43 544,-12 544,-12 544,-6 550,0 556,0"/>
</g>
<!-- replay&#45;&gt;playing_replay -->
<g id="edge7" class="edge">
<title>replay&#45;&gt;playing_replay</title>
<path fill="none" stroke="#000000" d="M170.0036,-120.9327C187.531,-115.68 206.6698,-110.2924 224.5,-106 328.1199,-81.0549 447.5443,-59.7171 533.7007,-45.6121"/>
<polygon fill="#000000" stroke="#000000" points="534.4679,-49.0333 543.775,-43.9709 533.3423,-42.1244 534.4679,-49.0333"/>
<text text-anchor="middle" x="446.5" y="-76.8" font-family="Helvetica,sans-Serif" font-size="14.00" fill="#000000"> replay_save_message</text>
</g>
<!-- playing_replay&#45;&gt;listening -->
<g id="edge8" class="edge">
<title>playing_replay&#45;&gt;listening</title>
<path fill="none" stroke="#000000" d="M759.2072,-36.4168C902.8397,-49.4161 1142.183,-75.3854 1168.5,-106 1211.3887,-155.8924 1161.9598,-208.8148 1103.5,-239 1067.6322,-257.52 973.2172,-273.9063 895.1716,-284.9381"/>
<polygon fill="#000000" stroke="#000000" points="894.6727,-281.4737 885.2533,-286.3239 895.6414,-288.4064 894.6727,-281.4737"/>
<text text-anchor="middle" x="1232" y="-137.3" font-family="Helvetica,sans-Serif" font-size="14.00" fill="#000000"> replay_finished</text>
</g>
<!-- playing&#45;&gt;listening -->
<g id="edge5" class="edge">
<title>playing&#45;&gt;listening</title>
<path fill="none" stroke="#000000" d="M561.6856,-161.6308C593.794,-169.2577 626.4795,-179.7012 655.5,-194 683.4739,-207.7832 710.1977,-229.5405 731.465,-249.7254"/>
<polygon fill="#000000" stroke="#000000" points="729.1346,-252.3409 738.753,-256.7838 734.0046,-247.3126 729.1346,-252.3409"/>
<text text-anchor="middle" x="765.5" y="-220.3" font-family="Helvetica,sans-Serif" font-size="14.00" fill="#000000"> queue_empty /</text>
<text text-anchor="middle" x="765.5" y="-205.3" font-family="Helvetica,sans-Serif" font-size="14.00" fill="#000000">iterate_queue();</text>
</g>
<!-- playing&#45;&gt;playing -->
<g id="edge3" class="edge">
<title>playing&#45;&gt;playing</title>
<path fill="none" stroke="#000000" d="M561.5725,-145.0607C572.7234,-144.126 579.5,-142.7725 579.5,-141 579.5,-139.8645 576.7189,-138.9009 571.7882,-138.1093"/>
<polygon fill="#000000" stroke="#000000" points="571.9058,-134.5999 561.5725,-136.9393 571.1093,-141.5545 571.9058,-134.5999"/>
<text text-anchor="middle" x="644.5" y="-144.8" font-family="Helvetica,sans-Serif" font-size="14.00" fill="#000000"> replay /</text>
<text text-anchor="middle" x="644.5" y="-129.8" font-family="Helvetica,sans-Serif" font-size="14.00" fill="#000000">stop_timer(time_out);</text>
</g>
<!-- playing&#45;&gt;playing -->
<g id="edge4" class="edge">
<title>playing&#45;&gt;playing</title>
<path fill="none" stroke="#000000" d="M561.6306,-152.1779C637.9504,-152.8265 709.5,-149.1006 709.5,-141 709.5,-133.2633 644.2343,-129.517 571.8809,-129.7612"/>
<polygon fill="#000000" stroke="#000000" points="571.6096,-126.2627 561.6306,-129.8221 571.6512,-133.2625 571.6096,-126.2627"/>
<text text-anchor="middle" x="808.5" y="-144.8" font-family="Helvetica,sans-Serif" font-size="14.00" fill="#000000"> time_out /</text>
<text text-anchor="middle" x="808.5" y="-129.8" font-family="Helvetica,sans-Serif" font-size="14.00" fill="#000000">load_next_message_in_queue();</text>
</g>
<!-- recording&#45;&gt;listening -->
<g id="edge10" class="edge">
<title>recording&#45;&gt;listening</title>
<path fill="none" stroke="#000000" d="M1028.525,-161.3455C1003.6631,-182.6476 962.2283,-216.1222 922.5,-239 913.5435,-244.1577 904.0617,-249.1139 894.4065,-253.8154"/>
<polygon fill="#000000" stroke="#000000" points="892.6317,-250.784 885.1077,-258.2432 895.6411,-257.104 892.6317,-250.784"/>
<text text-anchor="middle" x="1043.5" y="-227.8" font-family="Helvetica,sans-Serif" font-size="14.00" fill="#000000"> done /</text>
<text text-anchor="middle" x="1043.5" y="-212.8" font-family="Helvetica,sans-Serif" font-size="14.00" fill="#000000">send_data();</text>
<text text-anchor="middle" x="1043.5" y="-197.8" font-family="Helvetica,sans-Serif" font-size="14.00" fill="#000000">tts(Message sent);</text>
</g>
<!-- exception -->
<g id="node7" class="node">
<title>exception</title>
<text text-anchor="start" x="815" y="-464.3" font-family="Helvetica,sans-Serif" font-weight="bold" font-size="14.00" fill="#000000">exception</text>
<text text-anchor="start" x="774.5" y="-444.3" font-family="Helvetica,sans-Serif" font-size="14.00" fill="#000000">entry / update_led(True)</text>
<text text-anchor="start" x="740" y="-429.3" font-family="Helvetica,sans-Serif" font-size="14.00" fill="#000000">entry / update_status(EXCEPTION)</text>
<text text-anchor="start" x="737.5" y="-414.3" font-family="Helvetica,sans-Serif" font-size="14.00" fill="#000000">entry / start_timer(error_done, 3000)</text>
<text text-anchor="start" x="742.5" y="-399.3" font-family="Helvetica,sans-Serif" font-size="14.00" fill="#000000">save_message / save_message(*)</text>
<polygon fill="#000000" stroke="#000000" points="734.5,-457.5 734.5,-457.5 959.5,-457.5 959.5,-457.5 734.5,-457.5"/>
<path fill="none" stroke="#000000" d="M746,-393C746,-393 947,-393 947,-393 953,-393 959,-399 959,-405 959,-405 959,-466 959,-466 959,-472 953,-478 947,-478 947,-478 746,-478 746,-478 740,-478 734,-472 734,-466 734,-466 734,-405 734,-405 734,-399 740,-393 746,-393"/>
</g>
<!-- exception&#45;&gt;listening -->
<g id="edge11" class="edge">
<title>exception&#45;&gt;listening</title>
<path fill="none" stroke="#000000" d="M825.7915,-392.6624C820.5409,-381.9628 814.8663,-370.5357 809.5,-360 808.017,-357.0883 806.4833,-354.1041 804.9269,-351.0964"/>
<polygon fill="#000000" stroke="#000000" points="807.9407,-349.3058 800.218,-342.0525 801.7319,-352.5386 807.9407,-349.3058"/>
<text text-anchor="middle" x="851.5" y="-363.8" font-family="Helvetica,sans-Serif" font-size="14.00" fill="#000000"> error_done</text>
</g>
</g>
</svg>
