<?xml version="1.0" encoding="UTF-8" standalone="no"?>
<!DOCTYPE svg PUBLIC "-//W3C//DTD SVG 1.1//EN"
 "http://www.w3.org/Graphics/SVG/1.1/DTD/svg11.dtd">
<!-- Generated by graphviz version 2.40.1 (20161225.0304)
 -->
<!-- Title: G Pages: 1 -->
<svg width="179pt" height="273pt"
 viewBox="0.00 0.00 178.50 273.40" xmlns="http://www.w3.org/2000/svg" xmlns:xlink="http://www.w3.org/1999/xlink">
<g id="graph0" class="graph" transform="scale(1 1) rotate(0) translate(4 269.4)">
<title>G</title>
<polygon fill="#ffffff" stroke="transparent" points="-4,4 -4,-269.4 174.5,-269.4 174.5,4 -4,4"/>
<!-- initial -->
<g id="node1" class="node">
<title>initial</title>
<ellipse fill="#000000" stroke="#000000" cx="57.5" cy="-258.2" rx="7.2" ry="7.2"/>
</g>
<!-- listening -->
<g id="node2" class="node">
<title>listening</title>
<text text-anchor="start" x="29.5" y="-178.8" font-family="Helvetica,sans-Serif" font-weight="bold" font-size="14.00" fill="#000000">listening</text>
<path fill="none" stroke="#000000" d="M33.5,-171.5C33.5,-171.5 81.5,-171.5 81.5,-171.5 85,-171.5 88.5,-175 88.5,-178.5 88.5,-178.5 88.5,-185.5 88.5,-185.5 88.5,-189 85,-192.5 81.5,-192.5 81.5,-192.5 33.5,-192.5 33.5,-192.5 30,-192.5 26.5,-189 26.5,-185.5 26.5,-185.5 26.5,-178.5 26.5,-178.5 26.5,-175 30,-171.5 33.5,-171.5"/>
</g>
<!-- initial&#45;&gt;listening -->
<g id="edge1" class="edge">
<title>initial&#45;&gt;listening</title>
<path fill="none" stroke="#000000" d="M57.5,-250.8936C57.5,-241.5414 57.5,-224.7956 57.5,-210.1559"/>
<polygon fill="#000000" stroke="#000000" points="61.0001,-210.004 57.5,-200.004 54.0001,-210.0041 61.0001,-210.004"/>
<text text-anchor="middle" x="59.5" y="-221.8" font-family="Helvetica,sans-Serif" font-size="14.00" fill="#000000"> </text>
</g>
<!-- recognizing -->
<g id="node3" class="node">
<title>recognizing</title>
<text text-anchor="start" x="20" y="-99.8" font-family="Helvetica,sans-Serif" font-weight="bold" font-size="14.00" fill="#000000">recognizing</text>
<text text-anchor="start" x="3.5" y="-79.8" font-family="Helvetica,sans-Serif" font-size="14.00" fill="#000000">entry / recognize()</text>
<polygon fill="#000000" stroke="#000000" points=".5,-93 .5,-93 115.5,-93 115.5,-93 .5,-93"/>
<path fill="none" stroke="#000000" d="M12,-73C12,-73 103,-73 103,-73 109,-73 115,-79 115,-85 115,-85 115,-101 115,-101 115,-107 109,-113 103,-113 103,-113 12,-113 12,-113 6,-113 0,-107 0,-101 0,-101 0,-85 0,-85 0,-79 6,-73 12,-73"/>
</g>
<!-- listening&#45;&gt;recognizing -->
<g id="edge2" class="edge">
<title>listening&#45;&gt;recognizing</title>
<path fill="none" stroke="#000000" d="M39.6417,-163.8097C32.5496,-154.375 26.8454,-142.4532 30.5,-131 31.5087,-127.8389 32.8868,-124.7157 34.4902,-121.6992"/>
<polygon fill="#000000" stroke="#000000" points="37.5609,-123.3878 39.8318,-113.0392 31.6031,-119.7129 37.5609,-123.3878"/>
<text text-anchor="middle" x="47.5" y="-134.8" font-family="Helvetica,sans-Serif" font-size="14.00" fill="#000000"> done</text>
</g>
<!-- recognizing&#45;&gt;listening -->
<g id="edge3" class="edge">
<title>recognizing&#45;&gt;listening</title>
<path fill="none" stroke="#000000" d="M62.3247,-113.0956C64.1448,-122.9863 65.55,-135.0985 64.5,-146 64.2543,-148.5509 63.9128,-151.1896 63.5117,-153.8255"/>
<polygon fill="#000000" stroke="#000000" points="60.0455,-153.3278 61.7462,-163.7852 66.938,-154.5497 60.0455,-153.3278"/>
<text text-anchor="middle" x="117.5" y="-134.8" font-family="Helvetica,sans-Serif" font-size="14.00" fill="#000000"> recognition_error</text>
</g>
<!-- d_3 -->
<g id="node4" class="node">
<title>d_3</title>
<polygon fill="#000000" stroke="#000000" points="57.5,-22 46.5,-11 57.5,0 68.5,-11 57.5,-22"/>
</g>
<!-- recognizing&#45;&gt;d_3 -->
<g id="edge4" class="edge">
<title>recognizing&#45;&gt;d_3</title>
<path fill="none" stroke="#000000" d="M57.5,-72.7303C57.5,-60.5298 57.5,-45.0057 57.5,-32.5778"/>
<polygon fill="#000000" stroke="#000000" points="61.0001,-32.2191 57.5,-22.2191 54.0001,-32.2191 61.0001,-32.2191"/>
<text text-anchor="middle" x="106" y="-43.8" font-family="Helvetica,sans-Serif" font-size="14.00" fill="#000000">was_adressed()</text>
</g>
</g>
</svg>
