<?xml version="1.0" encoding="UTF-8" standalone="no"?>
<!DOCTYPE svg PUBLIC "-//W3C//DTD SVG 1.1//EN"
 "http://www.w3.org/Graphics/SVG/1.1/DTD/svg11.dtd">
<!-- Generated by graphviz version 2.40.1 (20161225.0304)
 -->
<!-- Title: G Pages: 1 -->
<svg width="342pt" height="518pt"
 viewBox="0.00 0.00 342.00 518.40" xmlns="http://www.w3.org/2000/svg" xmlns:xlink="http://www.w3.org/1999/xlink">
<g id="graph0" class="graph" transform="scale(1 1) rotate(0) translate(4 514.4)">
<title>G</title>
<polygon fill="#ffffff" stroke="transparent" points="-4,4 -4,-514.4 338,-514.4 338,4 -4,4"/>
<!-- initial -->
<g id="node1" class="node">
<title>initial</title>
<ellipse fill="#000000" stroke="#000000" cx="150" cy="-503.2" rx="7.2" ry="7.2"/>
</g>
<!-- passive -->
<g id="node5" class="node">
<title>passive</title>
<path fill="none" stroke="#000000" d="M169,-445C169,-445 131,-445 131,-445 125,-445 119,-439 119,-433 119,-433 119,-421 119,-421 119,-415 125,-409 131,-409 131,-409 169,-409 169,-409 175,-409 181,-415 181,-421 181,-421 181,-433 181,-433 181,-439 175,-445 169,-445"/>
<text text-anchor="middle" x="150" y="-423.3" font-family="Helvetica,sans-Serif" font-size="14.00" fill="#000000">passive</text>
</g>
<!-- initial&#45;&gt;passive -->
<g id="edge1" class="edge">
<title>initial&#45;&gt;passive</title>
<path fill="none" stroke="#000000" d="M150,-495.8936C150,-486.5414 150,-469.7956 150,-455.1559"/>
<polygon fill="#000000" stroke="#000000" points="153.5001,-455.004 150,-445.004 146.5001,-455.0041 153.5001,-455.004"/>
<text text-anchor="middle" x="183" y="-466.8" font-family="Helvetica,sans-Serif" font-size="14.00" fill="#000000"> &#160;/started();</text>
</g>
<!-- f3 -->
<g id="node2" class="node">
<title>f3</title>
<ellipse fill="#000000" stroke="#000000" cx="124" cy="-7.5" rx="3.5" ry="3.5"/>
<ellipse fill="none" stroke="#000000" cx="124" cy="-7.5" rx="7.5" ry="7.5"/>
</g>
<!-- build -->
<g id="node3" class="node">
<title>build</title>
<text text-anchor="start" x="57.5" y="-183.8" font-family="Helvetica,sans-Serif" font-weight="bold" font-size="14.00" fill="#000000">build</text>
<text text-anchor="start" x="3" y="-163.8" font-family="Helvetica,sans-Serif" font-size="14.00" fill="#000000">entry / build_response()</text>
<polygon fill="#000000" stroke="#000000" points="0,-177 0,-177 148,-177 148,-177 0,-177"/>
<path fill="none" stroke="#000000" d="M12,-157C12,-157 136,-157 136,-157 142,-157 148,-163 148,-169 148,-169 148,-185 148,-185 148,-191 142,-197 136,-197 136,-197 12,-197 12,-197 6,-197 0,-191 0,-185 0,-185 0,-169 0,-169 0,-163 6,-157 12,-157"/>
</g>
<!-- send -->
<g id="node4" class="node">
<title>send</title>
<text text-anchor="start" x="108.5" y="-92.8" font-family="Helvetica,sans-Serif" font-weight="bold" font-size="14.00" fill="#000000">send</text>
<text text-anchor="start" x="53" y="-72.8" font-family="Helvetica,sans-Serif" font-size="14.00" fill="#000000">entry / send_message()</text>
<polygon fill="#000000" stroke="#000000" points="50,-86 50,-86 199,-86 199,-86 50,-86"/>
<path fill="none" stroke="#000000" d="M61.5,-66C61.5,-66 186.5,-66 186.5,-66 192.5,-66 198.5,-72 198.5,-78 198.5,-78 198.5,-94 198.5,-94 198.5,-100 192.5,-106 186.5,-106 186.5,-106 61.5,-106 61.5,-106 55.5,-106 49.5,-100 49.5,-94 49.5,-94 49.5,-78 49.5,-78 49.5,-72 55.5,-66 61.5,-66"/>
</g>
<!-- build&#45;&gt;send -->
<g id="edge7" class="edge">
<title>build&#45;&gt;send</title>
<path fill="none" stroke="#000000" d="M68.7491,-156.8711C67.1296,-146.5228 66.9138,-134.0163 72,-124 73.9649,-120.1305 76.5292,-116.5609 79.4661,-113.2891"/>
<polygon fill="#000000" stroke="#000000" points="82.0778,-115.6345 86.8882,-106.1946 77.241,-110.5743 82.0778,-115.6345"/>
<text text-anchor="middle" x="118" y="-127.8" font-family="Helvetica,sans-Serif" font-size="14.00" fill="#000000"> response_built</text>
</g>
<!-- send&#45;&gt;f3 -->
<g id="edge6" class="edge">
<title>send&#45;&gt;f3</title>
<path fill="none" stroke="#000000" d="M124,-65.7843C124,-53.2533 124,-37.3071 124,-25.2628"/>
<polygon fill="#000000" stroke="#000000" points="127.5001,-25.1496 124,-15.1497 120.5001,-25.1497 127.5001,-25.1496"/>
<text text-anchor="middle" x="170.5" y="-36.8" font-family="Helvetica,sans-Serif" font-size="14.00" fill="#000000"> message_sent</text>
</g>
<!-- handle -->
<g id="node6" class="node">
<title>handle</title>
<path fill="none" stroke="#000000" d="M166.5,-343C166.5,-343 133.5,-343 133.5,-343 127.5,-343 121.5,-337 121.5,-331 121.5,-331 121.5,-319 121.5,-319 121.5,-313 127.5,-307 133.5,-307 133.5,-307 166.5,-307 166.5,-307 172.5,-307 178.5,-313 178.5,-319 178.5,-319 178.5,-331 178.5,-331 178.5,-337 172.5,-343 166.5,-343"/>
<text text-anchor="middle" x="150" y="-321.3" font-family="Helvetica,sans-Serif" font-size="14.00" fill="#000000">handle</text>
</g>
<!-- passive&#45;&gt;handle -->
<g id="edge2" class="edge">
<title>passive&#45;&gt;handle</title>
<path fill="none" stroke="#000000" d="M150,-408.7644C150,-393.317 150,-370.9149 150,-353.164"/>
<polygon fill="#000000" stroke="#000000" points="153.5001,-353.0776 150,-343.0777 146.5001,-353.0777 153.5001,-353.0776"/>
<text text-anchor="middle" x="209.5" y="-379.8" font-family="Helvetica,sans-Serif" font-size="14.00" fill="#000000"> incoming_request /</text>
<text text-anchor="middle" x="209.5" y="-364.8" font-family="Helvetica,sans-Serif" font-size="14.00" fill="#000000">handle_request();</text>
</g>
<!-- d_2 -->
<g id="node7" class="node">
<title>d_2</title>
<polygon fill="#000000" stroke="#000000" points="150,-256 139,-245 150,-234 161,-245 150,-256"/>
</g>
<!-- handle&#45;&gt;d_2 -->
<g id="edge3" class="edge">
<title>handle&#45;&gt;d_2</title>
<path fill="none" stroke="#000000" d="M150,-306.8468C150,-294.8664 150,-279.1145 150,-266.506"/>
<polygon fill="#000000" stroke="#000000" points="153.5001,-266.4089 150,-256.4089 146.5001,-266.409 153.5001,-266.4089"/>
<text text-anchor="middle" x="242" y="-277.8" font-family="Helvetica,sans-Serif" font-size="14.00" fill="#000000">handle_compound_transition()</text>
</g>
<!-- d_2&#45;&gt;build -->
<g id="edge5" class="edge">
<title>d_2&#45;&gt;build</title>
<path fill="none" stroke="#000000" d="M144.0364,-239.6642C135.3948,-231.9322 118.796,-217.0806 103.9264,-203.7762"/>
<polygon fill="#000000" stroke="#000000" points="106.1456,-201.0654 96.3594,-197.0058 101.4781,-206.2821 106.1456,-201.0654"/>
</g>
<!-- d_2&#45;&gt;send -->
<g id="edge4" class="edge">
<title>d_2&#45;&gt;send</title>
<path fill="none" stroke="#000000" d="M153.4817,-237.2496C161.8365,-217.4633 181.1019,-163.8357 164,-124 162.4295,-120.3418 160.3146,-116.8698 157.8735,-113.62"/>
<polygon fill="#000000" stroke="#000000" points="160.4634,-111.2645 151.2577,-106.0199 155.1836,-115.8606 160.4634,-111.2645"/>
</g>
</g>
</svg>
