<?xml version="1.0" encoding="UTF-8" standalone="no"?>
<!DOCTYPE svg PUBLIC "-//W3C//DTD SVG 1.1//EN"
 "http://www.w3.org/Graphics/SVG/1.1/DTD/svg11.dtd">
<!-- Generated by graphviz version 2.40.1 (20161225.0304)
 -->
<!-- Title: G Pages: 1 -->
<svg width="1618pt" height="642pt"
 viewBox="0.00 0.00 1617.50 642.40" xmlns="http://www.w3.org/2000/svg" xmlns:xlink="http://www.w3.org/1999/xlink">
<g id="graph0" class="graph" transform="scale(1 1) rotate(0) translate(4 638.4)">
<title>G</title>
<polygon fill="#ffffff" stroke="transparent" points="-4,4 -4,-638.4 1613.5,-638.4 1613.5,4 -4,4"/>
<!-- initial -->
<g id="node1" class="node">
<title>initial</title>
<ellipse fill="#000000" stroke="#000000" cx="693.5" cy="-627.2" rx="7.2" ry="7.2"/>
</g>
<!-- listening -->
<g id="node2" class="node">
<title>listening</title>
<text text-anchor="start" x="666" y="-555.8" font-family="Helvetica,sans-Serif" font-weight="bold" font-size="14.00" fill="#000000">listening</text>
<text text-anchor="start" x="618.5" y="-535.8" font-family="Helvetica,sans-Serif" font-size="14.00" fill="#000000">entry / update_led(False)</text>
<text text-anchor="start" x="638.5" y="-520.8" font-family="Helvetica,sans-Serif" font-size="14.00" fill="#000000">register / register()</text>
<text text-anchor="start" x="589.5" y="-505.8" font-family="Helvetica,sans-Serif" font-size="14.00" fill="#000000">save_message / save_message(*)</text>
<polygon fill="#000000" stroke="#000000" points="586.5,-549 586.5,-549 801.5,-549 801.5,-549 586.5,-549"/>
<path fill="none" stroke="#000000" d="M598,-499C598,-499 789,-499 789,-499 795,-499 801,-505 801,-511 801,-511 801,-557 801,-557 801,-563 795,-569 789,-569 789,-569 598,-569 598,-569 592,-569 586,-563 586,-557 586,-557 586,-511 586,-511 586,-505 592,-499 598,-499"/>
</g>
<!-- initial&#45;&gt;listening -->
<g id="edge1" class="edge">
<title>initial&#45;&gt;listening</title>
<path fill="none" stroke="#000000" d="M693.5,-619.8868C693.5,-610.9456 693.5,-595.058 693.5,-579.3584"/>
<polygon fill="#000000" stroke="#000000" points="697.0001,-579.1436 693.5,-569.1436 690.0001,-579.1436 697.0001,-579.1436"/>
<text text-anchor="middle" x="725.5" y="-590.8" font-family="Helvetica,sans-Serif" font-size="14.00" fill="#000000"> &#160;/on_init();</text>
</g>
<!-- check_recipient -->
<g id="node3" class="node">
<title>check_recipient</title>
<text text-anchor="start" x="358.5" y="-419.8" font-family="Helvetica,sans-Serif" font-weight="bold" font-size="14.00" fill="#000000">check_recipient</text>
<text text-anchor="start" x="307.5" y="-399.8" font-family="Helvetica,sans-Serif" font-size="14.00" fill="#000000">entry / start_timer(time_out, 3000)</text>
<text text-anchor="start" x="305.5" y="-384.8" font-family="Helvetica,sans-Serif" font-size="14.00" fill="#000000">save_message / save_message(*)</text>
<text text-anchor="start" x="331" y="-369.8" font-family="Helvetica,sans-Serif" font-size="14.00" fill="#000000">exit / stop_timer(time_out)</text>
<polygon fill="#000000" stroke="#000000" points="302.5,-413 302.5,-413 517.5,-413 517.5,-413 302.5,-413"/>
<path fill="none" stroke="#000000" d="M314,-363C314,-363 505,-363 505,-363 511,-363 517,-369 517,-375 517,-375 517,-421 517,-421 517,-427 511,-433 505,-433 505,-433 314,-433 314,-433 308,-433 302,-427 302,-421 302,-421 302,-375 302,-375 302,-369 308,-363 314,-363"/>
</g>
<!-- listening&#45;&gt;check_recipient -->
<g id="edge14" class="edge">
<title>listening&#45;&gt;check_recipient</title>
<path fill="none" stroke="#000000" d="M585.6906,-520.6567C529.569,-511.8269 468.2157,-498.6114 446.5,-481 434.5529,-471.3109 426.3391,-456.9627 420.7479,-442.9097"/>
<polygon fill="#000000" stroke="#000000" points="423.9643,-441.511 417.2824,-433.2888 417.3785,-443.8832 423.9643,-441.511"/>
<text text-anchor="middle" x="495" y="-469.8" font-family="Helvetica,sans-Serif" font-size="14.00" fill="#000000"> send /</text>
<text text-anchor="middle" x="495" y="-454.8" font-family="Helvetica,sans-Serif" font-size="14.00" fill="#000000">query_server(*);</text>
</g>
<!-- check_replay_recipient -->
<g id="node4" class="node">
<title>check_replay_recipient</title>
<text text-anchor="start" x="619" y="-419.8" font-family="Helvetica,sans-Serif" font-weight="bold" font-size="14.00" fill="#000000">check_replay_recipient</text>
<text text-anchor="start" x="591.5" y="-399.8" font-family="Helvetica,sans-Serif" font-size="14.00" fill="#000000">entry / start_timer(time_out, 3000)</text>
<text text-anchor="start" x="589.5" y="-384.8" font-family="Helvetica,sans-Serif" font-size="14.00" fill="#000000">save_message / save_message(*)</text>
<text text-anchor="start" x="615" y="-369.8" font-family="Helvetica,sans-Serif" font-size="14.00" fill="#000000">exit / stop_timer(time_out)</text>
<polygon fill="#000000" stroke="#000000" points="586.5,-413 586.5,-413 801.5,-413 801.5,-413 586.5,-413"/>
<path fill="none" stroke="#000000" d="M598,-363C598,-363 789,-363 789,-363 795,-363 801,-369 801,-375 801,-375 801,-421 801,-421 801,-427 795,-433 789,-433 789,-433 598,-433 598,-433 592,-433 586,-427 586,-421 586,-421 586,-375 586,-375 586,-369 592,-363 598,-363"/>
</g>
<!-- listening&#45;&gt;check_replay_recipient -->
<g id="edge7" class="edge">
<title>listening&#45;&gt;check_replay_recipient</title>
<path fill="none" stroke="#000000" d="M693.5,-498.9766C693.5,-482.0555 693.5,-461.5398 693.5,-443.4323"/>
<polygon fill="#000000" stroke="#000000" points="697.0001,-443.3773 693.5,-433.3774 690.0001,-443.3774 697.0001,-443.3773"/>
<text text-anchor="middle" x="742" y="-469.8" font-family="Helvetica,sans-Serif" font-size="14.00" fill="#000000"> replay /</text>
<text text-anchor="middle" x="742" y="-454.8" font-family="Helvetica,sans-Serif" font-size="14.00" fill="#000000">query_server(*);</text>
</g>
<!-- playing -->
<g id="node7" class="node">
<title>playing</title>
<text text-anchor="start" x="959.5" y="-419.8" font-family="Helvetica,sans-Serif" font-weight="bold" font-size="14.00" fill="#000000">playing</text>
<text text-anchor="start" x="900" y="-399.8" font-family="Helvetica,sans-Serif" font-size="14.00" fill="#000000">entry / stop_timer(time_out)</text>
<text text-anchor="start" x="843.5" y="-384.8" font-family="Helvetica,sans-Serif" font-size="14.00" fill="#000000">message_played / start_timer(&#39;time_out&#39;,3000)</text>
<text text-anchor="start" x="822.5" y="-369.8" font-family="Helvetica,sans-Serif" font-size="14.00" fill="#000000">save_message / save_message(*); save_message(*)</text>
<polygon fill="#000000" stroke="#000000" points="819.5,-413 819.5,-413 1147.5,-413 1147.5,-413 819.5,-413"/>
<path fill="none" stroke="#000000" d="M831.5,-363C831.5,-363 1135.5,-363 1135.5,-363 1141.5,-363 1147.5,-369 1147.5,-375 1147.5,-375 1147.5,-421 1147.5,-421 1147.5,-427 1141.5,-433 1135.5,-433 1135.5,-433 831.5,-433 831.5,-433 825.5,-433 819.5,-427 819.5,-421 819.5,-421 819.5,-375 819.5,-375 819.5,-369 825.5,-363 831.5,-363"/>
</g>
<!-- listening&#45;&gt;playing -->
<g id="edge2" class="edge">
<title>listening&#45;&gt;playing</title>
<path fill="none" stroke="#000000" d="M801.287,-517.262C851.8844,-507.8632 905.6051,-495.183 926.5,-481 940.8729,-471.244 952.6763,-456.5552 961.7392,-442.2335"/>
<polygon fill="#000000" stroke="#000000" points="964.8881,-443.7878 967.0265,-433.411 958.8838,-440.1894 964.8881,-443.7878"/>
<text text-anchor="middle" x="970" y="-462.3" font-family="Helvetica,sans-Serif" font-size="14.00" fill="#000000"> play</text>
</g>
<!-- recording -->
<g id="node8" class="node">
<title>recording</title>
<text text-anchor="start" x="76.5" y="-298.8" font-family="Helvetica,sans-Serif" font-weight="bold" font-size="14.00" fill="#000000">recording</text>
<text text-anchor="start" x="3.5" y="-278.8" font-family="Helvetica,sans-Serif" font-size="14.00" fill="#000000">save_message / save_message(*)</text>
<polygon fill="#000000" stroke="#000000" points=".5,-292 .5,-292 215.5,-292 215.5,-292 .5,-292"/>
<path fill="none" stroke="#000000" d="M12,-272C12,-272 203,-272 203,-272 209,-272 215,-278 215,-284 215,-284 215,-300 215,-300 215,-306 209,-312 203,-312 203,-312 12,-312 12,-312 6,-312 0,-306 0,-300 0,-300 0,-284 0,-284 0,-278 6,-272 12,-272"/>
</g>
<!-- check_recipient&#45;&gt;recording -->
<g id="edge17" class="edge">
<title>check_recipient&#45;&gt;recording</title>
<path fill="none" stroke="#000000" d="M301.9001,-366.4096C297.0452,-365.2121 292.2284,-364.0686 287.5,-363 240.035,-352.2729 224.3236,-363.9432 179.5,-345 164.3987,-338.6179 149.5018,-328.4798 137.2116,-318.7715"/>
<polygon fill="#000000" stroke="#000000" points="139.1036,-315.7972 129.1488,-312.1705 134.6693,-321.2135 139.1036,-315.7972"/>
<text text-anchor="middle" x="218" y="-333.8" font-family="Helvetica,sans-Serif" font-size="14.00" fill="#000000"> recipient_ok</text>
</g>
<!-- exception -->
<g id="node9" class="node">
<title>exception</title>
<text text-anchor="start" x="798" y="-71.3" font-family="Helvetica,sans-Serif" font-weight="bold" font-size="14.00" fill="#000000">exception</text>
<text text-anchor="start" x="757.5" y="-51.3" font-family="Helvetica,sans-Serif" font-size="14.00" fill="#000000">entry / update_led(True)</text>
<text text-anchor="start" x="723" y="-36.3" font-family="Helvetica,sans-Serif" font-size="14.00" fill="#000000">entry / update_status(EXCEPTION)</text>
<text text-anchor="start" x="720.5" y="-21.3" font-family="Helvetica,sans-Serif" font-size="14.00" fill="#000000">entry / start_timer(error_done, 3000)</text>
<text text-anchor="start" x="725.5" y="-6.3" font-family="Helvetica,sans-Serif" font-size="14.00" fill="#000000">save_message / save_message(*)</text>
<polygon fill="#000000" stroke="#000000" points="717.5,-64.5 717.5,-64.5 942.5,-64.5 942.5,-64.5 717.5,-64.5"/>
<path fill="none" stroke="#000000" d="M729,0C729,0 930,0 930,0 936,0 942,-6 942,-12 942,-12 942,-73 942,-73 942,-79 936,-85 930,-85 930,-85 729,-85 729,-85 723,-85 717,-79 717,-73 717,-73 717,-12 717,-12 717,-6 723,0 729,0"/>
</g>
<!-- check_recipient&#45;&gt;exception -->
<g id="edge15" class="edge">
<title>check_recipient&#45;&gt;exception</title>
<path fill="none" stroke="#000000" d="M398.1925,-362.9408C388.4976,-327.0292 378.4188,-270.091 394.5,-224 408.1509,-184.8747 421.827,-178.8622 452.5,-151 481.5176,-124.6415 490.1862,-117.7681 526.5,-103 583.5716,-79.7901 650.4225,-65.2286 706.7901,-56.2272"/>
<polygon fill="#000000" stroke="#000000" points="707.4828,-59.6616 716.8255,-54.6653 706.4062,-52.7449 707.4828,-59.6616"/>
<text text-anchor="middle" x="473.5" y="-242.8" font-family="Helvetica,sans-Serif" font-size="14.00" fill="#000000"> recipient_not_found /</text>
<text text-anchor="middle" x="473.5" y="-227.8" font-family="Helvetica,sans-Serif" font-size="14.00" fill="#000000">error(Recipient not found);</text>
</g>
<!-- check_recipient&#45;&gt;exception -->
<g id="edge16" class="edge">
<title>check_recipient&#45;&gt;exception</title>
<path fill="none" stroke="#000000" d="M353.7825,-362.9254C307.4855,-329.0768 253.3903,-275.5205 281.5,-224 329.0915,-136.7725 376.8293,-138.8569 469.5,-103 545.2714,-73.6819 635.4306,-58.5554 706.5672,-50.7592"/>
<polygon fill="#000000" stroke="#000000" points="707.3456,-54.1964 716.9208,-49.6614 706.6074,-47.2354 707.3456,-54.1964"/>
<text text-anchor="middle" x="333" y="-242.8" font-family="Helvetica,sans-Serif" font-size="14.00" fill="#000000"> time_out /</text>
<text text-anchor="middle" x="333" y="-227.8" font-family="Helvetica,sans-Serif" font-size="14.00" fill="#000000">error(Timed out);</text>
</g>
<!-- replay -->
<g id="node5" class="node">
<title>replay</title>
<text text-anchor="start" x="674" y="-298.8" font-family="Helvetica,sans-Serif" font-weight="bold" font-size="14.00" fill="#000000">replay</text>
<text text-anchor="start" x="589.5" y="-278.8" font-family="Helvetica,sans-Serif" font-size="14.00" fill="#000000">save_message / save_message(*)</text>
<polygon fill="#000000" stroke="#000000" points="586.5,-292 586.5,-292 801.5,-292 801.5,-292 586.5,-292"/>
<path fill="none" stroke="#000000" d="M598,-272C598,-272 789,-272 789,-272 795,-272 801,-278 801,-284 801,-284 801,-300 801,-300 801,-306 795,-312 789,-312 789,-312 598,-312 598,-312 592,-312 586,-306 586,-300 586,-300 586,-284 586,-284 586,-278 592,-272 598,-272"/>
</g>
<!-- check_replay_recipient&#45;&gt;replay -->
<g id="edge10" class="edge">
<title>check_replay_recipient&#45;&gt;replay</title>
<path fill="none" stroke="#000000" d="M693.5,-362.9979C693.5,-349.8064 693.5,-334.9271 693.5,-322.2101"/>
<polygon fill="#000000" stroke="#000000" points="697.0001,-322.1209 693.5,-312.1209 690.0001,-322.1209 697.0001,-322.1209"/>
<text text-anchor="middle" x="732" y="-333.8" font-family="Helvetica,sans-Serif" font-size="14.00" fill="#000000"> recipient_ok</text>
</g>
<!-- check_replay_recipient&#45;&gt;exception -->
<g id="edge8" class="edge">
<title>check_replay_recipient&#45;&gt;exception</title>
<path fill="none" stroke="#000000" d="M763.1144,-362.9757C781.813,-349.7872 799.5835,-332.8236 809.5,-312 827.152,-274.9326 830.016,-162.5878 830.0614,-95.2179"/>
<polygon fill="#000000" stroke="#000000" points="833.5615,-95.2097 830.0477,-85.2145 826.5615,-95.2193 833.5615,-95.2097"/>
<text text-anchor="middle" x="905.5" y="-242.8" font-family="Helvetica,sans-Serif" font-size="14.00" fill="#000000"> recipient_not_found /</text>
<text text-anchor="middle" x="905.5" y="-227.8" font-family="Helvetica,sans-Serif" font-size="14.00" fill="#000000">error(Recipient not found);</text>
</g>
<!-- check_replay_recipient&#45;&gt;exception -->
<g id="edge9" class="edge">
<title>check_replay_recipient&#45;&gt;exception</title>
<path fill="none" stroke="#000000" d="M792.1733,-362.9333C868.935,-333.405 966.0659,-290.2992 988.5,-254 1024.7545,-195.339 963.8164,-132.7488 907.2058,-91.0087"/>
<polygon fill="#000000" stroke="#000000" points="909.0522,-88.0247 898.8969,-85.0045 904.9523,-93.6984 909.0522,-88.0247"/>
<text text-anchor="middle" x="1051" y="-242.8" font-family="Helvetica,sans-Serif" font-size="14.00" fill="#000000"> time_out /</text>
<text text-anchor="middle" x="1051" y="-227.8" font-family="Helvetica,sans-Serif" font-size="14.00" fill="#000000">error(Timed out);</text>
</g>
<!-- playing_replay -->
<g id="node6" class="node">
<title>playing_replay</title>
<text text-anchor="start" x="522.5" y="-192.3" font-family="Helvetica,sans-Serif" font-weight="bold" font-size="14.00" fill="#000000">playing_replay</text>
<text text-anchor="start" x="465.5" y="-172.3" font-family="Helvetica,sans-Serif" font-size="14.00" fill="#000000">save_message / save_message(*)</text>
<text text-anchor="start" x="481" y="-157.3" font-family="Helvetica,sans-Serif" font-size="14.00" fill="#000000">replay_save_message / defer</text>
<polygon fill="#000000" stroke="#000000" points="462.5,-185.5 462.5,-185.5 677.5,-185.5 677.5,-185.5 462.5,-185.5"/>
<path fill="none" stroke="#000000" d="M474,-151C474,-151 665,-151 665,-151 671,-151 677,-157 677,-163 677,-163 677,-194 677,-194 677,-200 671,-206 665,-206 665,-206 474,-206 474,-206 468,-206 462,-200 462,-194 462,-194 462,-163 462,-163 462,-157 468,-151 474,-151"/>
</g>
<!-- replay&#45;&gt;playing_replay -->
<g id="edge11" class="edge">
<title>replay&#45;&gt;playing_replay</title>
<path fill="none" stroke="#000000" d="M671.6167,-271.9697C653.9068,-255.7595 628.5439,-232.5442 607.526,-213.306"/>
<polygon fill="#000000" stroke="#000000" points="609.741,-210.5887 600.0013,-206.4185 605.0147,-215.7522 609.741,-210.5887"/>
<text text-anchor="middle" x="720.5" y="-235.3" font-family="Helvetica,sans-Serif" font-size="14.00" fill="#000000"> replay_save_message</text>
</g>
<!-- playing_replay&#45;&gt;listening -->
<g id="edge12" class="edge">
<title>playing_replay&#45;&gt;listening</title>
<path fill="none" stroke="#000000" d="M563.3278,-206.1636C553.9375,-254.7773 540.6847,-357.5275 576.5,-433 587.6718,-456.542 607.2035,-476.7568 627.1452,-492.781"/>
<polygon fill="#000000" stroke="#000000" points="625.0417,-495.5788 635.0897,-498.9388 629.3301,-490.0462 625.0417,-495.5788"/>
<text text-anchor="middle" x="602" y="-333.8" font-family="Helvetica,sans-Serif" font-size="14.00" fill="#000000"> replay_finished</text>
</g>
<!-- playing_replay&#45;&gt;exception -->
<g id="edge13" class="edge">
<title>playing_replay&#45;&gt;exception</title>
<path fill="none" stroke="#000000" d="M543.2479,-150.7265C532.1131,-135.5485 524.0555,-117.0394 535.5,-103 557.4285,-76.0995 636.13,-60.8135 706.589,-52.3383"/>
<polygon fill="#000000" stroke="#000000" points="707.3885,-55.769 716.917,-51.1367 706.5795,-48.8159 707.3885,-55.769"/>
<text text-anchor="middle" x="675.5" y="-121.8" font-family="Helvetica,sans-Serif" font-size="14.00" fill="#000000"> could_not_be_played /</text>
<text text-anchor="middle" x="675.5" y="-106.8" font-family="Helvetica,sans-Serif" font-size="14.00" fill="#000000">error(Retreived message could not be played);</text>
</g>
<!-- playing&#45;&gt;listening -->
<g id="edge5" class="edge">
<title>playing&#45;&gt;listening</title>
<path fill="none" stroke="#000000" d="M861.9859,-433.1126C849.6618,-438.4024 837.6079,-444.3513 826.5,-451 809.7727,-461.0123 810.3868,-469.7013 794.5,-481 788.2594,-485.4383 781.5994,-489.7452 774.7892,-493.859"/>
<polygon fill="#000000" stroke="#000000" points="772.9522,-490.8788 766.1028,-498.9619 776.4979,-496.9144 772.9522,-490.8788"/>
<text text-anchor="middle" x="874.5" y="-469.8" font-family="Helvetica,sans-Serif" font-size="14.00" fill="#000000"> time_out /</text>
<text text-anchor="middle" x="874.5" y="-454.8" font-family="Helvetica,sans-Serif" font-size="14.00" fill="#000000">iterate_queue();</text>
</g>
<!-- playing&#45;&gt;playing -->
<g id="edge3" class="edge">
<title>playing&#45;&gt;playing</title>
<path fill="none" stroke="#000000" d="M1147.5725,-402.0607C1158.7234,-401.126 1165.5,-399.7725 1165.5,-398 1165.5,-396.8645 1162.7189,-395.9009 1157.7882,-395.1093"/>
<polygon fill="#000000" stroke="#000000" points="1157.9058,-391.5999 1147.5725,-393.9393 1157.1093,-398.5545 1157.9058,-391.5999"/>
<text text-anchor="middle" x="1230.5" y="-401.8" font-family="Helvetica,sans-Serif" font-size="14.00" fill="#000000"> replay /</text>
<text text-anchor="middle" x="1230.5" y="-386.8" font-family="Helvetica,sans-Serif" font-size="14.00" fill="#000000">stop_timer(time_out);</text>
</g>
<!-- playing&#45;&gt;playing -->
<g id="edge4" class="edge">
<title>playing&#45;&gt;playing</title>
<path fill="none" stroke="#000000" d="M1147.6306,-409.1779C1223.9504,-409.8265 1295.5,-406.1006 1295.5,-398 1295.5,-390.2633 1230.2343,-386.517 1157.8809,-386.7612"/>
<polygon fill="#000000" stroke="#000000" points="1157.6096,-383.2627 1147.6306,-386.8221 1157.6512,-390.2625 1157.6096,-383.2627"/>
<text text-anchor="middle" x="1394.5" y="-401.8" font-family="Helvetica,sans-Serif" font-size="14.00" fill="#000000"> next /</text>
<text text-anchor="middle" x="1394.5" y="-386.8" font-family="Helvetica,sans-Serif" font-size="14.00" fill="#000000">load_next_message_in_queue();</text>
</g>
<!-- playing&#45;&gt;exception -->
<g id="edge6" class="edge">
<title>playing&#45;&gt;exception</title>
<path fill="none" stroke="#000000" d="M1036.6527,-362.8697C1080.4701,-329.1943 1131.6451,-275.9443 1106.5,-224 1075.7026,-160.3795 1010.6029,-116.0062 951.2493,-87.0662"/>
<polygon fill="#000000" stroke="#000000" points="952.6922,-83.8767 942.1595,-82.7308 949.6787,-90.1949 952.6922,-83.8767"/>
<text text-anchor="middle" x="1210" y="-242.8" font-family="Helvetica,sans-Serif" font-size="14.00" fill="#000000"> queue_empty /</text>
<text text-anchor="middle" x="1210" y="-227.8" font-family="Helvetica,sans-Serif" font-size="14.00" fill="#000000">error(Message queue is empty);</text>
</g>
<!-- recording&#45;&gt;listening -->
<g id="edge18" class="edge">
<title>recording&#45;&gt;listening</title>
<path fill="none" stroke="#000000" d="M99.1029,-312.4895C88.249,-342.6591 73.9125,-399.1125 102.5,-433 132.6798,-468.775 412.1771,-504.1356 575.7662,-522.005"/>
<polygon fill="#000000" stroke="#000000" points="575.5662,-525.5038 585.8857,-523.1043 576.3222,-518.5448 575.5662,-525.5038"/>
<text text-anchor="middle" x="197.5" y="-409.3" font-family="Helvetica,sans-Serif" font-size="14.00" fill="#000000"> done /</text>
<text text-anchor="middle" x="197.5" y="-394.3" font-family="Helvetica,sans-Serif" font-size="14.00" fill="#000000">send_data();</text>
<text text-anchor="middle" x="197.5" y="-379.3" font-family="Helvetica,sans-Serif" font-size="14.00" fill="#000000">text_to_speech(Message sent);</text>
</g>
<!-- exception&#45;&gt;listening -->
<g id="edge19" class="edge">
<title>exception&#45;&gt;listening</title>
<path fill="none" stroke="#000000" d="M942.0016,-52.6069C1142.2024,-72.1205 1539.5,-118.4145 1539.5,-178.5 1539.5,-398 1539.5,-398 1539.5,-398 1539.5,-415.6998 1535.1333,-423.0426 1520.5,-433 1463.0402,-472.099 1025.7062,-509.4191 811.2887,-525.5926"/>
<polygon fill="#000000" stroke="#000000" points="810.959,-522.1074 801.2493,-526.3467 811.4834,-529.0877 810.959,-522.1074"/>
<text text-anchor="middle" x="1574.5" y="-288.3" font-family="Helvetica,sans-Serif" font-size="14.00" fill="#000000"> error_done</text>
</g>
</g>
</svg>
