<?xml version="1.0" encoding="UTF-8" standalone="no"?>
<!DOCTYPE svg PUBLIC "-//W3C//DTD SVG 1.1//EN"
 "http://www.w3.org/Graphics/SVG/1.1/DTD/svg11.dtd">
<!-- Generated by graphviz version 2.40.1 (20161225.0304)
 -->
<!-- Title: G Pages: 1 -->
<svg width="329pt" height="452pt"
 viewBox="0.00 0.00 329.00 452.40" xmlns="http://www.w3.org/2000/svg" xmlns:xlink="http://www.w3.org/1999/xlink">
<g id="graph0" class="graph" transform="scale(1 1) rotate(0) translate(4 448.4)">
<title>G</title>
<polygon fill="#ffffff" stroke="transparent" points="-4,4 -4,-448.4 325,-448.4 325,4 -4,4"/>
<!-- initial -->
<g id="node1" class="node">
<title>initial</title>
<ellipse fill="#000000" stroke="#000000" cx="31" cy="-437.2" rx="7.2" ry="7.2"/>
</g>
<!-- passive -->
<g id="node4" class="node">
<title>passive</title>
<path fill="none" stroke="#000000" d="M50,-379C50,-379 12,-379 12,-379 6,-379 0,-373 0,-367 0,-367 0,-355 0,-355 0,-349 6,-343 12,-343 12,-343 50,-343 50,-343 56,-343 62,-349 62,-355 62,-355 62,-367 62,-367 62,-373 56,-379 50,-379"/>
<text text-anchor="middle" x="31" y="-357.3" font-family="Helvetica,sans-Serif" font-size="14.00" fill="#000000">passive</text>
</g>
<!-- initial&#45;&gt;passive -->
<g id="edge1" class="edge">
<title>initial&#45;&gt;passive</title>
<path fill="none" stroke="#000000" d="M31,-429.8936C31,-420.5414 31,-403.7956 31,-389.1559"/>
<polygon fill="#000000" stroke="#000000" points="34.5001,-389.004 31,-379.004 27.5001,-389.0041 34.5001,-389.004"/>
<text text-anchor="middle" x="64" y="-400.8" font-family="Helvetica,sans-Serif" font-size="14.00" fill="#000000"> &#160;/started();</text>
</g>
<!-- build -->
<g id="node2" class="node">
<title>build</title>
<text text-anchor="start" x="133.5" y="-117.8" font-family="Helvetica,sans-Serif" font-weight="bold" font-size="14.00" fill="#000000">build</text>
<text text-anchor="start" x="79" y="-97.8" font-family="Helvetica,sans-Serif" font-size="14.00" fill="#000000">entry / build_response()</text>
<polygon fill="#000000" stroke="#000000" points="76,-111 76,-111 224,-111 224,-111 76,-111"/>
<path fill="none" stroke="#000000" d="M88,-91C88,-91 212,-91 212,-91 218,-91 224,-97 224,-103 224,-103 224,-119 224,-119 224,-125 218,-131 212,-131 212,-131 88,-131 88,-131 82,-131 76,-125 76,-119 76,-119 76,-103 76,-103 76,-97 82,-91 88,-91"/>
</g>
<!-- send -->
<g id="node3" class="node">
<title>send</title>
<text text-anchor="start" x="89.5" y="-26.8" font-family="Helvetica,sans-Serif" font-weight="bold" font-size="14.00" fill="#000000">send</text>
<text text-anchor="start" x="34" y="-6.8" font-family="Helvetica,sans-Serif" font-size="14.00" fill="#000000">entry / send_message()</text>
<polygon fill="#000000" stroke="#000000" points="31,-20 31,-20 180,-20 180,-20 31,-20"/>
<path fill="none" stroke="#000000" d="M42.5,0C42.5,0 167.5,0 167.5,0 173.5,0 179.5,-6 179.5,-12 179.5,-12 179.5,-28 179.5,-28 179.5,-34 173.5,-40 167.5,-40 167.5,-40 42.5,-40 42.5,-40 36.5,-40 30.5,-34 30.5,-28 30.5,-28 30.5,-12 30.5,-12 30.5,-6 36.5,0 42.5,0"/>
</g>
<!-- build&#45;&gt;send -->
<g id="edge7" class="edge">
<title>build&#45;&gt;send</title>
<path fill="none" stroke="#000000" d="M79.5082,-90.9519C65.3055,-85.4843 53.3718,-79.3158 49,-73 42.4527,-63.5413 46.6118,-54.4605 55.027,-46.5697"/>
<polygon fill="#000000" stroke="#000000" points="57.3246,-49.214 62.9552,-40.2392 52.9568,-43.7439 57.3246,-49.214"/>
<text text-anchor="middle" x="95" y="-61.8" font-family="Helvetica,sans-Serif" font-size="14.00" fill="#000000"> response_built</text>
</g>
<!-- build&#45;&gt;send -->
<g id="edge8" class="edge">
<title>build&#45;&gt;send</title>
<path fill="none" stroke="#000000" d="M149.3417,-90.7567C148.3335,-80.4955 146.0468,-68.1026 141,-58 139.3171,-54.6313 137.2358,-51.3575 134.9292,-48.2361"/>
<polygon fill="#000000" stroke="#000000" points="137.4893,-45.84 128.416,-40.3695 132.0975,-50.3041 137.4893,-45.84"/>
<text text-anchor="middle" x="196" y="-61.8" font-family="Helvetica,sans-Serif" font-size="14.00" fill="#000000"> response_failed</text>
</g>
<!-- send&#45;&gt;passive -->
<g id="edge6" class="edge">
<title>send&#45;&gt;passive</title>
<path fill="none" stroke="#000000" d="M64.1862,-40.0296C56.2058,-45.1524 48.3532,-51.175 42,-58 23.9878,-77.3501 15,-84.564 15,-111 15,-259 15,-259 15,-259 15,-284.1858 19.8199,-312.4518 24.1689,-332.8297"/>
<polygon fill="#000000" stroke="#000000" points="20.7793,-333.7105 26.3721,-342.7089 27.6114,-332.1868 20.7793,-333.7105"/>
<text text-anchor="middle" x="61.5" y="-175.3" font-family="Helvetica,sans-Serif" font-size="14.00" fill="#000000"> message_sent</text>
</g>
<!-- handle -->
<g id="node5" class="node">
<title>handle</title>
<path fill="none" stroke="#000000" d="M133.5,-277C133.5,-277 100.5,-277 100.5,-277 94.5,-277 88.5,-271 88.5,-265 88.5,-265 88.5,-253 88.5,-253 88.5,-247 94.5,-241 100.5,-241 100.5,-241 133.5,-241 133.5,-241 139.5,-241 145.5,-247 145.5,-253 145.5,-253 145.5,-265 145.5,-265 145.5,-271 139.5,-277 133.5,-277"/>
<text text-anchor="middle" x="117" y="-255.3" font-family="Helvetica,sans-Serif" font-size="14.00" fill="#000000">handle</text>
</g>
<!-- passive&#45;&gt;handle -->
<g id="edge2" class="edge">
<title>passive&#45;&gt;handle</title>
<path fill="none" stroke="#000000" d="M46.3751,-342.7644C59.9497,-326.6643 79.8941,-303.0093 95.1293,-284.9397"/>
<polygon fill="#000000" stroke="#000000" points="97.9879,-286.979 101.758,-277.0777 92.6362,-282.4668 97.9879,-286.979"/>
<text text-anchor="middle" x="143.5" y="-313.8" font-family="Helvetica,sans-Serif" font-size="14.00" fill="#000000"> incoming_request /</text>
<text text-anchor="middle" x="143.5" y="-298.8" font-family="Helvetica,sans-Serif" font-size="14.00" fill="#000000">handle_request();</text>
</g>
<!-- d_2 -->
<g id="node6" class="node">
<title>d_2</title>
<polygon fill="#000000" stroke="#000000" points="150,-190 139,-179 150,-168 161,-179 150,-190"/>
</g>
<!-- handle&#45;&gt;d_2 -->
<g id="edge3" class="edge">
<title>handle&#45;&gt;d_2</title>
<path fill="none" stroke="#000000" d="M124.4882,-240.8468C130.0101,-227.4604 137.4744,-209.3651 142.9018,-196.2078"/>
<polygon fill="#000000" stroke="#000000" points="146.1639,-197.4779 146.7417,-186.8988 139.6928,-194.8085 146.1639,-197.4779"/>
<text text-anchor="middle" x="229" y="-211.8" font-family="Helvetica,sans-Serif" font-size="14.00" fill="#000000">handle_compound_transition()</text>
</g>
<!-- d_2&#45;&gt;build -->
<g id="edge5" class="edge">
<title>d_2&#45;&gt;build</title>
<path fill="none" stroke="#000000" d="M150,-167.7712C150,-160.5355 150,-150.7535 150,-141.3484"/>
<polygon fill="#000000" stroke="#000000" points="153.5001,-141.0459 150,-131.0459 146.5001,-141.046 153.5001,-141.0459"/>
</g>
<!-- d_2&#45;&gt;send -->
<g id="edge4" class="edge">
<title>d_2&#45;&gt;send</title>
<path fill="none" stroke="#000000" d="M158.4767,-176.4709C175.2872,-171.0155 212.9503,-156.5269 233,-131 253.5767,-104.8022 270.3519,-84.3728 250,-58 241.8226,-47.4034 216.8048,-39.1872 189.8007,-33.1493"/>
<polygon fill="#000000" stroke="#000000" points="190.2985,-29.677 179.7895,-31.023 188.8441,-36.5243 190.2985,-29.677"/>
</g>
</g>
</svg>
